<svg width="32" height="32" viewBox="0 0 32 32" fill="none" xmlns="http://www.w3.org/2000/svg">
<path fill-rule="evenodd" clip-rule="evenodd" d="M26.9235 0H5.05835C2.26628 0 0 2.25045 0 5.023V26.7534C0 29.5259 2.26628 31.7764 5.05835 31.7764H26.9417C29.7337 31.7764 32 29.5259 32 26.7534V5.023C31.9819 2.25045 29.7156 0 26.9235 0ZM29.8062 26.7534C29.8062 28.3377 28.519 29.6159 26.9235 29.6159H5.05835C3.46288 29.6159 2.17563 28.3377 2.17563 26.7534V5.023C2.17563 3.43868 3.46288 2.16043 5.05835 2.16043H26.9417C28.5371 2.16043 29.8244 3.43868 29.8244 5.023V26.7534H29.8062ZM15.9908 8.85762C12.0928 8.85762 8.91995 12.0082 8.91995 15.879C8.91995 19.7498 12.0928 22.9004 15.9908 22.9004C19.8888 22.9004 23.0616 19.7498 23.0616 15.879C23.0616 12.0082 19.8888 8.85762 15.9908 8.85762ZM15.9908 20.758C13.2894 20.758 11.0956 18.5796 11.0956 15.897C11.0956 13.2145 13.2894 11.0361 15.9908 11.0361C18.6922 11.0361 20.886 13.2145 20.886 15.897C20.886 18.5616 18.6922 20.758 15.9908 20.758ZM27.4854 8.15568C27.4854 9.14998 26.6737 9.95604 25.6723 9.95604C24.671 9.95604 23.8593 9.14998 23.8593 8.15568C23.8593 7.16136 24.671 6.35532 25.6723 6.35532C26.6737 6.35532 27.4854 7.16136 27.4854 8.15568Z" fill="#434C59"/>
</svg>
